<svg width="92" height="83" viewBox="0 0 92 83" fill="none" xmlns="http://www.w3.org/2000/svg">
<path d="M46.0001 74.6666H54.3334V20.5L80.9751 31.9166C81.7251 32.2382 82.3642 32.7728 82.813 33.4543C83.2619 34.1357 83.5008 34.934 83.5001 35.75V74.6666H91.8334V83H0.166748V74.6666H8.50008V19.0416C8.49998 18.2355 8.73375 17.4466 9.17306 16.7706C9.61236 16.0946 10.2383 15.5606 10.9751 15.2333L43.0709 0.970813C43.3881 0.82989 43.7355 0.770456 44.0815 0.797909C44.4275 0.825363 44.7612 0.938834 45.0522 1.12801C45.3432 1.3172 45.5824 1.57609 45.7479 1.88118C45.9134 2.18627 46.0001 2.52788 46.0001 2.87498V74.6666Z" fill="#06413A"/>
</svg>
