<svg width="64" height="71" viewBox="0 0 64 71" fill="none" xmlns="http://www.w3.org/2000/svg">
<path d="M4.99993 71C3.81938 71 2.8291 70.6 2.0291 69.8C1.2291 69 0.830489 68.0111 0.833266 66.8333V4.33331C0.833266 3.15275 1.23327 2.16247 2.03327 1.36247C2.83327 0.562474 3.82216 0.163863 4.99993 0.16664H34.8958C35.868 0.16664 36.736 0.47914 37.4999 1.10414C38.2638 1.72914 38.7499 2.52775 38.9583 3.49997L39.9999 8.49997H59.1666C60.3472 8.49997 61.3374 8.89997 62.1374 9.69997C62.9374 10.5 63.336 11.4889 63.3333 12.6666V46C63.3333 47.1805 62.9333 48.1708 62.1333 48.9708C61.3333 49.7708 60.3444 50.1694 59.1666 50.1666H37.6041C36.6319 50.1666 35.7638 49.8541 34.9999 49.2291C34.236 48.6041 33.7499 47.8055 33.5416 46.8333L32.4999 41.8333H9.1666V66.8333C9.1666 68.0139 8.7666 69.0041 7.9666 69.8041C7.1666 70.6041 6.17771 71.0028 4.99993 71Z" fill="#06413A"/>
</svg>
