<svg width="12" height="1779" viewBox="0 0 12 1779" fill="none" xmlns="http://www.w3.org/2000/svg">
<path d="M6 0.666667C3.05448 0.666667 0.666667 3.05448 0.666667 6C0.666667 8.94552 3.05448 11.3333 6 11.3333C8.94552 11.3333 11.3333 8.94552 11.3333 6C11.3333 3.05448 8.94552 0.666667 6 0.666667ZM6 1767.67C3.05448 1767.67 0.666667 1770.05 0.666667 1773C0.666667 1775.95 3.05448 1778.33 6 1778.33C8.94552 1778.33 11.3333 1775.95 11.3333 1773C11.3333 1770.05 8.94552 1767.67 6 1767.67ZM5 6L5 1773H7L7 6H5Z" fill="#06413A"/>
</svg>
