<svg width="88" height="89" viewBox="0 0 88 89" fill="none" xmlns="http://www.w3.org/2000/svg">
<path d="M72.1055 10.125V0.75H15.875V10.125H0.25V17.5469C0.25 23.7969 2.10547 29.8105 5.47656 34.4629C8.08008 38.0566 12.1504 40.5371 15.8105 41.7305C16.873 47.4512 19.7559 52.8887 25.6133 57.3223C29.9102 60.5762 35.0762 62.9609 39.7031 63.9355V79.6562H25.25V88.25H62.75V79.6562H48.2969V63.9355C52.9238 62.959 58.0879 60.5762 62.3867 57.3223C68.2461 52.8887 71.127 47.4512 72.1895 41.7305C75.8496 40.5371 79.9199 38.0566 82.5234 34.4629C85.8945 29.8105 87.75 23.7969 87.75 17.5469V10.125H72.1055ZM12.4375 29.4219C10.3516 26.5547 9.08399 22.7031 8.875 18.7188H15.875V31.877C15.1055 31.6543 13.3516 30.6816 12.4375 29.4219ZM75.5625 29.4219C74.6641 30.7129 73.2969 31.8789 72.125 31.8789C72.125 27.5039 72.125 22.8379 72.1152 18.7188H79.127C78.916 22.7031 77.5938 26.5117 75.5625 29.4219Z" fill="#06413A"/>
</svg>
